<?xml version="1.0" encoding="UTF-8"?>
<svg id="Ebene_1" xmlns="http://www.w3.org/2000/svg" baseProfile="tiny" version="1.2" viewBox="0 0 691.32 749.95">
  <!-- Generator: Adobe Illustrator 29.4.0, SVG Export Plug-In . SVG Version: 2.1.0 Build 152)  -->
  <g id="OPKkPj">
    <g>
      <path d="M355.86,614.34c1.48.42,3.76,4.73,3.55,6.51l-.08,122.97c-1.12,5.76-15.7,4.68-20.53,4.57-6.93-.15-16.02.46-20.43-5.57l-40.53-69.47-.02,70.97c-1.02,1.43-2.16,2.65-4,3-4.29.8-20.23.54-24.99.03-1.49-.16-3-.32-4.25-1.24-2.03-2.03-1.36-26.43-1.28-31.3.04-2.36,1.05-4.55,1.08-6.92.43-30.85-1.48-61.95,1.39-92.61.75-1.07,4.58-1.3,6.07-1.37,6.59-.3,18.53-.21,25.05.39,1.97.18,3.84.11,5.4,1.6l42.05,70.44c.65-3.63-.89-7.03-1.03-10.46-.65-15.8-1.77-43.1,0-58.09.17-1.46.12-2.57,1.55-3.45h31Z" fill="#ff1b40"/>
      <path d="M62.86,614.34c2.46.26,9.45,2.1,12.04,2.96,29.74,9.74,36.31,41.65,11.46,61.03,32.81,17.3,26.24,56.38-8.79,66.73-15.17,4.48-51.47,4.79-67.7,3.28-2.23-.21-8.02-1.19-8.85-3.22-1.72-4.24-.76-25.15-.71-31.32.2-24.16,1.53-48.58,1.1-73-.06-3.59-3.33-26.45,1.45-26.45,19.15,1.48,41.22-1.99,60,0ZM36.36,640.34v24.5c2.86,2.32,9.79,1.87,13.49,1.49,10.52-1.08,19.05-9.89,12.35-20.32-5.23-8.14-17.71-5.63-25.83-5.67ZM36.36,720.34c9.35-.13,28.02,2.39,33.67-6.83,4.22-6.88.62-13.92-6.28-17.06-1.52-.69-9.74-3.11-10.89-3.11h-16.5v27Z" fill="#ff1b40"/>
      <path d="M543.61,746.09l-20.18-41.07-13.07-1.68c.8,14.21,2.09,28.68-.19,42.8-1.12,1.58-25.81,1.71-29.35,1.25-1.7-.22-3.03-.37-3.96-2.04-.14-10.48-1.29-21.04-1.55-31.46-.44-18.07.83-36.27,1.1-54.01.22-14.44-1.32-28.43.15-42.84,1.47-3.07,4.23-3.47,7.26-3.74,14.99-1.36,46.06-1.01,60.56,2.54,36.51,8.93,46.39,53.2,18.47,77.49-1.83,1.59-6.52,3.3-6.52,5.49l25.91,45.89c-1.35,2.47-3.67,3.34-6.34,3.66-5.16.61-29.18.67-32.27-2.28ZM511.36,644.34c.76,5.08-3.01,29.51-.06,31.56,15.93,2.82,35.93-2.92,29.3-23.29-1.28-3.94-6.74-8.27-10.73-8.27h-18.5Z" fill="#ff1b40"/>
      <path d="M224.86,614.34c5.04,5.14,1.58,13.37,1.46,19.46-.47,23.47,3.2,59.18-1.2,80.8-9.69,47.65-102.42,49.72-106.8-9.72-2.07-28.07,1.6-58.67.07-87.01.13-1.03.55-1.97,1.38-2.62,2.23-1.76,17.95-.85,22.14-.86s8.24-2.63,11.98,1.94l.73,89.28c4.58,17.01,33.01,16.35,35.67-3.85,3.28-25-2.88-56.74.07-81.93.26-2.25.74-3.95,2.52-5.48h32Z" fill="#ff1b40"/>
      <path d="M456.86,714.34c2.43.51,4.22,3.01,4.55,5.45.54,3.96.63,21.38-.05,25.05-.34,1.82-1.25,2.49-2.95,3.05l-78.62-.48-2.94-2.06.45-129.58,2.08-1.92,77.07-.08c.8.22,1.52.48,1.99,1.23,1.21,1.93,1.53,24.94.73,27.64-.6,2-3.4,3.31-5.36,3.64-12.76,2.1-29.39-2.17-42.44,1.06v17h39.5c.17,0,1.76,1.54,1.98,2.02.82,1.75,1.01,23.71.49,26.46-.21,1.1-1.73,3.53-2.47,3.53h-38l-1.5,1.5v16.5h45.5Z" fill="#ff1b40"/>
      <path d="M612.11,615.6l20.76,46.74c2.03.49,5.47-7.76,6.34-9.64,3.1-6.67,12.93-34.37,16.62-37.38,1.69-1.38,2.85-1.75,5-2,4.02-.47,25.64-.47,28.28.76.92.43,1.76.92,2.14,1.93.82,2.61-6.64,15.9-8.37,19.35-9.95,19.82-21.39,38.96-31.05,58.95l-1.96,52.04c-1.77,2.69-23.94,2.47-28.02,2-1.88-.21-3.65-.52-4.99-2.01l-.44-31.55-1.53-22.48-39.09-74.91.98-2.12c.87-.84,1.94-.86,3.05-1,6.13-.77,20.71-.54,27.09,0,1.82.16,3.68.12,5.21,1.3Z" fill="#ff1b40"/>
      <g>
        <path d="M466.6,186.11c33.19,18.44,58.13,47.18,73.94,81.55,2.07,4.49,7.57,21.56,9.35,23.65.95,1.11,16.85,7.56,20.39,9.61,67.8,39.36,62.97,102.54-8.89,131.95-15.25,32.58-45.97,53.82-80.98,60.51-.3,19.87,12.85,46.17,9.89,65.39-2.17,14.09-28.15,15.39-39.44,16.56-13.54,1.4-33.71,3.09-46.98,1.99-35.37-2.95-20.11-38.1,3.4-45.07l-6.01-27.81c-35.16,1.47-70.6,1.21-105.76-.96-2.41,11.84-3.28,24.23-5.29,36.21-2.34,13.98-2.38,29.7-18.81,34.19s-61.01-.7-78.23-4.86c-7.1-1.71-15.4-3.68-16.75-12.24-3.06-19.49,19.58-30.69,35.75-32.63l3.17-28.78c-47.35-6.89-92.83-33.37-103.33-83.19-4.64-22,.07-45.26,2.15-67.14-15.83-15.86-30.78-30.67-40.98-51.03-17.68-35.31-31.46-108.49,16.9-125.45,24.85-8.71,52.43,7.87,46.27,35.77,12.37-1.23,20.57,8.08,17.79,20.29-2.11,9.3-24.73,20.07-25.54,24.32,1.51,9.47,4.73,19.55,12.75,25.38,23.45-45.44,64.62-82.43,112.03-101.73l4.88-31.17c-71-19.1-59.86-117.02,14.56-120.14,5.27-.22,16.98,2.52,19.78,1.86,1.88-.44,13.21-9.86,17.09-11.99,32.21-17.67,83.77-14.88,110.39,11.99,25.51-3.47,52.18,1.19,69.25,21.71,25.15,30.24,15.6,73.23-18.65,91.29-2.69,1.42-11.47,3.7-12.18,5.85l8.09,44.1ZM419.36,110.33c8.25.41,21.65,11.78,28.51,12.08,10.72.48,24.3-10.55,29.9-19.16,18.31-28.16-5.23-62.56-36.91-62.91-7.31-.08-14.32,3.06-21.08,3.91-8.53,1.08-8.45-3.61-13.94-7.89-23.72-18.51-62.14-22.97-88.4-7.44-7.01,4.14-9.64,8.41-15.05,12.95-6.51,5.47-12.33-.57-19.64-1.42-27.96-3.28-54.66,15.76-52.37,45.38,1.42,18.43,15.62,34.65,34.03,37.06,5.11-12.57,7.25-17.68,20.41-22.59,7.4-2.76,26.85-9.28,30.78.3,6.84,16.66-25.16,14.08-29.7,20.78-2.17,3.2-6.97,21.74-8.25,26.75-.64,2.5-4.22,16.28-3.29,17.22,11.9-.51,23.58-3.21,35.46-4.04,30.79-2.15,68.27-.23,98.73,5.36,11.8,2.16,23.34,5.27,34.81,8.68,1.22-1.35-6.56-33.78-8.04-35.45-1.61-1.81-13.47-8.43-16.28-9.72-8.02-3.69-16.81-5.88-25.47-7.53-5.53-1.06-15.33-.19-18.77-4.23-4.19-4.92-2.52-10.23,2.82-13.31,6.75-1.03,13.46-1.78,19.95-4.05,7.32-2.56,19.8-13.17,24.03-.42,1.75,5.27-.94,5.25-2.24,9.7ZM530.36,442.35c-33.71,2.66-48.91-35.7-23.48-57.99,1.45-1.27,5.43-3.06,6.03-4.03.39-.63-.77-6.89-.47-9.4,1.19-9.91,10.67-14.3,19.73-11.9,4.33,1.15,7.1,6.11,11.19,2.83,1.69-1.93,1.12-8.1.86-10.9-3.8-41.12-28.01-99.12-59.35-126.65-57.6-50.6-192.78-57.73-256.83-17.78-56.28,35.1-104.41,123.68-97.68,190.29,6.15,60.85,59.94,75.37,111.63,82.37,65.36,8.86,145.52,9.72,210.69-.02,28.09-4.2,62.03-10.42,77.67-36.82Z" fill="#ff1b40"/>
        <path d="M345.07,304.56c13.69-3.13,16.67,10.49,7.31,19.3-14.84,13.98-52.42,17.6-62.84-3.2-4.31-8.61,1.13-16.82,10.86-13.86,2.28.69,5.34,3.85,7.91,5.08,7.71,3.67,16.42,3.45,24.27.19,3.79-1.58,9.28-6.78,12.48-7.51Z" fill="#ff1b40"/>
        <path d="M372.09,273.58c23.01-4.25,24.87,30.78,2.76,29.82-17.66-.76-17.55-27.09-2.76-29.82Z" fill="#ff1b40"/>
        <path d="M268.1,273.59c22.9-3.74,23.25,32.35.86,29.68-15.93-1.9-17.15-27.01-.86-29.68Z" fill="#ff1b40"/>
        <path d="M382.09,235.58c15.19-2.62,19.17,12.78,7.26,17.25-4.7,1.76-11.65,2.73-16.78,4.22-4.85,1.41-13.24,7.55-17.29,1.86-6.86-9.65,19.72-22.12,26.8-23.34Z" fill="#ff1b40"/>
        <path d="M262.12,234.56c6.17-1,24.16,7.44,28.77,11.76,6.31,5.92,3.81,15.88-5.77,13.81-6.28-4.4-24.09-6.05-28.7-10.33-5.26-4.88-1.56-14.05,5.7-15.24Z" fill="#ff1b40"/>
      </g>
    </g>
  </g>
</svg>